<svg width="500" height="400" version="1.1" xmlns="http://www.w3.org/2000/svg" desc="Created with imagetracer.js version 1.2.4" ><path fill="rgb(149,170,176)" stroke="rgb(149,170,176)" stroke-width="1" opacity="0.06666666666666667" d="M 247.5 126 L 249 126.5 L 245.5 128 L 245.5 127 L 247.5 126 Z " /><path fill="rgb(149,170,176)" stroke="rgb(149,170,176)" stroke-width="1" opacity="0.06666666666666667" d="M 277.5 147 L 278 160.5 L 277 160.5 L 277.5 147 Z " /><path fill="rgb(149,170,176)" stroke="rgb(149,170,176)" stroke-width="1" opacity="0.06666666666666667" d="M 268.5 187 L 269 188.5 L 264 192.5 L 268.5 187 Z " /><path fill="rgb(149,170,176)" stroke="rgb(149,170,176)" stroke-width="1" opacity="0.06666666666666667" d="M 261.5 194 L 263 194.5 L 261 195 Q 262.1 197.7 259.5 197 L 261.5 194 Z " /><path fill="rgb(149,170,176)" stroke="rgb(149,170,176)" stroke-width="1" opacity="0.06666666666666667" d="M 349.5 208 L 351.5 211 L 349.5 208 Z " /><path fill="rgb(149,170,176)" stroke="rgb(149,170,176)" stroke-width="1" opacity="0.06666666666666667" d="M 256.5 211 L 258.5 214 L 256.5 211 Z " /><path fill="rgb(149,170,176)" stroke="rgb(149,170,176)" stroke-width="1" opacity="0.06666666666666667" d="M 146.5 213 L 147.5 215 L 146.5 213 Z " /><path fill="rgb(149,170,176)" stroke="rgb(149,170,176)" stroke-width="1" opacity="0.06666666666666667" d="M 235.5 218 L 236 224 Q 239.3 222.7 238 227.5 L 239 234 Q 232.6 232.8 231 237.5 L 229.5 241 Q 229.7 236.3 226.5 235 L 222 233.5 L 231 231.5 L 230.5 230 L 233.5 231 L 232.5 229 L 223 229.5 L 223.5 231 L 221 232.5 L 221 234 L 217 234 L 216 228 L 218 228 Q 216.8 222.7 220 223.5 L 220 220.5 L 221.5 221 L 229.5 223 L 235.5 218 Z M 220 231 L 219 233 L 221 232 L 220 231 Z M 235 231 L 236 233 L 238 233 L 235 231 Z " /><path fill="rgb(149,170,176)" stroke="rgb(149,170,176)" stroke-width="1" opacity="0.06666666666666667" d="M 268.5 221 L 269.5 223 L 268.5 221 Z " /><path fill="rgb(149,170,176)" stroke="rgb(149,170,176)" stroke-width="1" opacity="0.06666666666666667" d="M 287.5 224 L 302.5 224 Q 304.2 226.8 309.5 226 L 311.5 228 L 317 228 L 316.5 230 Q 315.2 227.8 310.5 229 L 310.5 230 L 313.5 231 L 315 230.5 L 313.5 240 L 310.5 235 L 302.5 234 L 299.5 237 L 298 235.5 L 295.5 229 Q 293.5 233 291.5 229 L 288 230.5 Q 289 235.5 286 234.5 L 286 240 Q 289.5 238.9 288 246.5 Q 290.3 250 296 249 L 297 245.5 L 293 244 Q 290.9 238.8 295.5 240 Q 296.8 237.8 298 240.5 L 298 244.5 L 302 249.5 L 302 253 Q 305.8 254.5 305 251.5 L 304.5 250 L 309.5 249 L 313 245.5 L 313.5 243 L 314 254 L 312 254 L 312 258 Q 307.8 257 308.5 260 L 284.5 260 L 278 255.5 L 277 249 L 279.5 248 L 283.5 249 L 285 247.5 L 285 235.5 Q 284.3 233.3 280.5 234 L 279 235.5 L 279 243 Q 273.7 244.8 276 237.5 Q 279 235.3 278 230 L 280 229.5 L 271 228.5 L 278.5 228 L 280.5 226 Q 285.8 226.8 287.5 224 Z " /><path fill="rgb(149,170,176)" stroke="rgb(149,170,176)" stroke-width="1" opacity="0.06666666666666667" d="M 136 228 L 146.5 228 L 147 229.5 L 145.5 229 Q 140.8 227.8 139.5 230 L 137.5 229 L 136 229.5 L 136 228 Z " /><path fill="rgb(149,170,176)" stroke="rgb(149,170,176)" stroke-width="1" opacity="0.06666666666666667" d="M 196.5 228 L 201 228.5 L 194.5 230 L 194.5 229 L 196.5 228 Z " /><path fill="rgb(149,170,176)" stroke="rgb(149,170,176)" stroke-width="1" opacity="0.06666666666666667" d="M 203.5 228 Q 208.9 227.1 211 229.5 L 209.5 230 Q 208.3 227.8 203.5 229 L 203.5 228 Z " /><path fill="rgb(149,170,176)" stroke="rgb(149,170,176)" stroke-width="1" opacity="0.06666666666666667" d="M 251 228 L 259 228.5 L 251.5 230 L 251 228 Z " /><path fill="rgb(149,170,176)" stroke="rgb(149,170,176)" stroke-width="1" opacity="0.06666666666666667" d="M 336 228 L 342.5 228 L 343 230 L 338.5 229 L 336 230 L 336 228 Z " /><path fill="rgb(149,170,176)" stroke="rgb(149,170,176)" stroke-width="1" opacity="0.06666666666666667" d="M 344 228 L 363 228.5 L 345.5 229 L 344.5 230 L 344 228 Z " /><path fill="rgb(149,170,176)" stroke="rgb(149,170,176)" stroke-width="1" opacity="0.06666666666666667" d="M 304.5 240 Q 309.3 238.3 308 242.5 L 304.5 244 L 303 241.5 L 304.5 240 Z " /><path fill="rgb(0,0,0)" stroke="rgb(0,0,0)" stroke-width="1" opacity="0" d="M 0 0 L 500 0 L 500 400 L 0 400 L 0 0 Z M 251 125 L 244 129 L 192 150 L 194 150 L 194 169 L 192 172 L 190 173 L 195 185 L 203 173 L 202 172 L 199 170 L 199 150 L 216 150 L 216 167 L 227 164 L 231 164 L 232 164 L 227 175 Q 227 184 231 190 Q 235 196 244 198 Q 255 200 260 195 L 260 197 L 263 195 L 262 194 L 267 189 L 268 190 L 269 188 L 267 188 L 270 180 Q 270 170 266 165 L 263 160 L 277 162 L 278 161 L 278 147 L 302 147 L 260 129 Q 256 130 257 128 L 255 127 L 252 127 Q 253 124 251 125 Z M 180 196 L 164 200 L 151 208 Q 146 210 146 215 L 153 212 L 162 210 L 177 210 L 178 211 L 190 212 L 220 220 Q 221 225 218 225 L 218 228 L 216 228 L 217 234 L 225 235 L 221 235 L 219 235 L 215 236 L 215 248 L 218 249 Q 220 247 219 242 L 223 239 Q 226 241 224 248 L 226 249 L 229 248 Q 228 241 231 238 Q 233 233 239 234 L 238 228 Q 239 223 236 224 L 236 218 L 243 213 L 250 206 L 251 207 Q 253 206 252 209 L 270 223 L 284 220 L 286 218 L 291 218 L 293 216 L 324 210 L 339 210 L 348 212 L 354 215 L 352 211 L 339 201 L 331 198 L 320 196 L 292 196 Q 290 199 284 197 L 267 200 L 251 205 L 242 202 L 217 197 Q 210 199 209 196 L 180 196 Z M 288 224 Q 286 227 281 226 L 279 228 Q 272 226 271 229 L 260 229 L 259 228 L 252 228 L 251 230 L 253 229 L 254 230 L 253 232 Q 255 235 260 233 L 260 247 L 261 249 L 265 248 L 265 233 L 271 233 L 272 229 L 280 230 L 278 230 Q 279 235 276 238 Q 274 245 279 243 L 279 236 L 281 234 Q 284 233 285 236 L 285 237 L 284 235 L 280 235 L 280 243 L 277 244 L 275 243 L 275 235 Q 271 234 270 237 L 271 246 L 276 249 L 279 248 Q 280 246 281 249 L 280 248 L 277 249 L 278 256 L 285 260 L 309 260 Q 308 257 312 258 L 312 254 L 314 254 L 314 244 L 313 243 L 315 231 L 314 231 L 311 230 L 311 229 Q 315 228 317 230 L 317 228 L 312 228 L 310 226 Q 304 227 303 224 L 288 224 Z M 136 228 L 136 230 L 138 229 L 140 230 Q 141 228 146 229 L 147 230 L 147 228 L 136 228 Z M 197 228 L 197 229 L 201 229 L 197 228 Z M 204 228 L 204 229 L 209 229 L 204 228 Z M 242 228 L 240 230 Q 243 238 235 235 Q 230 237 231 245 L 237 249 L 239 248 L 242 249 L 244 248 L 245 248 L 245 230 L 242 228 Z M 336 228 L 336 230 L 339 229 L 343 230 L 343 228 L 336 228 Z M 344 228 L 345 230 L 346 229 L 363 229 L 344 228 Z M 169 229 L 167 231 L 167 249 L 173 249 L 173 242 L 180 242 L 180 236 L 173 236 L 174 234 L 183 234 L 184 231 L 183 229 L 169 229 Z M 189 234 L 186 235 L 182 240 L 183 246 L 188 249 L 195 247 L 197 242 L 196 239 Q 194 234 189 234 Z M 200 235 L 198 237 Q 197 243 200 247 L 204 249 L 208 247 L 211 249 L 213 246 L 213 238 L 212 237 L 212 235 L 208 235 L 208 243 L 207 244 L 203 243 L 203 235 L 200 235 Z M 315 235 L 315 248 L 318 249 Q 321 247 319 241 L 321 239 Q 327 241 325 235 L 320 236 L 315 235 Z " /><path fill="rgb(0,0,0)" stroke="rgb(0,0,0)" stroke-width="1" opacity="0" d="M 223.5 229 L 232.5 229 L 238 232.5 L 235.5 233 Q 233.3 228.7 225.5 230 Q 223.7 232.5 223.5 229 Z " /><path fill="rgb(0,0,0)" stroke="rgb(0,0,0)" stroke-width="1" opacity="0" d="M 289.5 229 L 292 229.5 L 288.5 231 L 289.5 229 Z " /><path fill="rgb(0,0,0)" stroke="rgb(0,0,0)" stroke-width="1" opacity="0" d="M 295.5 229 L 299 238.5 L 297 239.5 L 297 235 Q 294.3 236.1 295 233.5 L 294 233.5 L 293.5 235 L 293 231.5 L 295.5 229 Z " /><path fill="rgb(0,0,0)" stroke="rgb(0,0,0)" stroke-width="1" opacity="0" d="M 219.5 231 L 221 231.5 L 218.5 233 L 219.5 231 Z " /><path fill="rgb(0,0,0)" stroke="rgb(0,0,0)" stroke-width="1" opacity="0" d="M 226.5 235 Q 229.5 235.5 229 239.5 L 228 239.5 L 226.5 235 Z " /><path fill="rgb(0,0,0)" stroke="rgb(0,0,0)" stroke-width="1" opacity="0" d="M 310.5 235 L 313 238.5 L 312 238.5 L 310.5 235 Z " /><path fill="rgb(0,0,0)" stroke="rgb(0,0,0)" stroke-width="1" opacity="0" d="M 188.5 239 L 192 240.5 L 190.5 244 Q 185.3 245.8 187 240.5 L 188.5 239 Z " /><path fill="rgb(0,0,0)" stroke="rgb(0,0,0)" stroke-width="1" opacity="0" d="M 237.5 239 L 240 240.5 L 238.5 244 Q 235.2 245.1 236 242.5 Q 233.3 240.8 237.5 239 Z " /><path fill="rgb(0,0,0)" stroke="rgb(0,0,0)" stroke-width="1" opacity="0" d="M 304.5 239 L 307 239.5 L 303.5 241 L 304.5 239 Z " /><path fill="rgb(0,0,0)" stroke="rgb(0,0,0)" stroke-width="1" opacity="0" d="M 288.5 244 L 290 247.5 L 286 248.5 L 288.5 244 Z " /><path fill="rgb(0,0,0)" stroke="rgb(0,0,0)" stroke-width="1" opacity="0" d="M 312.5 244 L 313 245.5 L 308.5 249 L 308.5 248 L 312 245.5 L 312.5 244 Z " /><path fill="rgb(0,0,0)" stroke="rgb(0,0,0)" stroke-width="1" opacity="0" d="M 284.5 247 L 283.5 249 L 284.5 247 Z " /><path fill="rgb(0,0,0)" stroke="rgb(0,0,0)" stroke-width="1" opacity="0" d="M 300.5 247 L 306 249.5 L 304 250.5 L 305 253 Q 300.5 254.8 302 249.5 L 300.5 247 Z " /><path fill="rgb(2,183,240)" stroke="rgb(2,183,240)" stroke-width="1" opacity="0.9176470588235294" d="M 179.5 196 L 181.5 196 L 206.5 196 L 207.5 197 L 209.5 197 L 222.5 198 L 250.5 205 L 276.5 198 L 278.5 198 L 290.5 197 L 291.5 196 L 318.5 196 L 319.5 197 L 330.5 198 L 338.5 201 Q 347.9 205.6 354 213.5 L 350.5 214 Q 340.8 207.7 322.5 210 L 305.5 214 L 303.5 214 L 292.5 216 L 270.5 223 L 252 208.5 Q 252.8 206.3 250.5 207 L 249.5 206 L 244.5 211 L 241.5 213 L 231.5 222 L 226.5 223 L 214.5 218 L 210.5 218 L 207.5 216 L 189.5 212 L 177.5 211 L 176.5 210 L 160.5 210 L 151.5 212 L 146.5 215 L 147 213.5 L 149.5 209 L 159.5 202 L 179.5 196 Z " /><path fill="rgb(2,183,240)" stroke="rgb(2,183,240)" stroke-width="1" opacity="0.9176470588235294" d="M 168.5 229 L 182.5 229 L 183 230.5 L 184 232.5 L 182.5 234 L 173 234 Q 171.6 238 178.5 236 Q 181.3 237.4 180 242 L 173 242 L 173 249 L 167 249 L 167 230.5 L 168.5 229 Z " /><path fill="rgb(2,183,240)" stroke="rgb(2,183,240)" stroke-width="1" opacity="0.9176470588235294" d="M 225.5 230 Q 230 229 231 231.5 L 221.5 234 L 221 232.5 L 225.5 230 Z " /><path fill="rgb(18,19,19)" stroke="rgb(18,19,19)" stroke-width="1" opacity="0.9686274509803922" d="M 249.5 126 L 259.5 129 L 300 146.5 L 277 147 L 277 161.5 Q 277 162.5 272.5 162 L 262.5 160 L 266 164.5 Q 270.2 169.8 270 179.5 Q 268.4 190.4 260.5 195 Q 255 199.5 243.5 198 Q 235.2 195.8 231 189.5 Q 226.8 184.2 227 174.5 L 231 164 L 216 167 L 216 150 L 199 150 L 199 169.5 L 201.5 172 L 203 172.5 L 194.5 185 L 190 172.5 L 192 172 L 194 168.5 L 194 150 L 192 149.5 L 249.5 126 Z " /><path fill="rgb(18,19,19)" stroke="rgb(18,19,19)" stroke-width="1" opacity="0.9686274509803922" d="M 241.5 228 L 245 229.5 L 245 247.5 L 243.5 248 L 241.5 249 L 238.5 248 L 236.5 249 L 231 244.5 Q 229.9 236.9 234.5 235 Q 242.8 237.8 240 229.5 L 241.5 228 Z M 238 239 Q 233 241 236 243 Q 235 245 239 244 L 240 241 L 238 239 Z " /><path fill="rgb(18,19,19)" stroke="rgb(18,19,19)" stroke-width="1" opacity="0.9686274509803922" d="M 254.5 229 L 271.5 229 L 272 231.5 Q 270.4 234.5 265 233 L 265 247.5 L 263.5 249 Q 260.2 250.1 261 247.5 L 260 246.5 L 260 233 Q 254.6 234.5 253 231.5 L 254.5 229 Z " /><path fill="rgb(18,19,19)" stroke="rgb(18,19,19)" stroke-width="1" opacity="0.9686274509803922" d="M 289.5 230 Q 295.2 228.2 293 234.5 L 295.5 235 Q 298.5 234.1 297 238.5 L 293 240 L 293 244 Q 296.8 242.5 296 245.5 L 296 247.5 Q 296.9 250.5 292.5 249 L 289 246.5 L 288 239 Q 284.7 240.3 286 235.5 L 289.5 230 Z " /><path fill="rgb(18,19,19)" stroke="rgb(18,19,19)" stroke-width="1" opacity="0.9686274509803922" d="M 188.5 234 Q 194.1 234.5 196 238.5 L 197 241.5 L 195 247 L 187.5 249 L 183 245.5 L 182 239.5 L 185.5 235 L 188.5 234 Z M 189 239 L 187 241 Q 185 246 191 244 L 192 241 L 189 239 Z " /><path fill="rgb(18,19,19)" stroke="rgb(18,19,19)" stroke-width="1" opacity="0.9686274509803922" d="M 303.5 234 Q 309.9 233.6 312 237.5 L 313 243.5 L 309.5 248 L 303.5 249 L 299 245.5 L 298 239.5 L 301.5 235 L 303.5 234 Z M 305 239 L 303 243 L 307 244 L 308 241 L 305 239 Z " /><path fill="rgb(18,19,19)" stroke="rgb(18,19,19)" stroke-width="1" opacity="0.9686274509803922" d="M 199.5 235 L 203 235 L 203 242.5 L 206.5 244 L 208 242.5 L 208 235 L 212 235 L 212 236.5 L 213 237.5 L 213 245.5 L 210.5 249 L 207.5 247 L 203.5 249 L 200 246.5 Q 197.3 243.2 198 236.5 L 199.5 235 Z " /><path fill="rgb(18,19,19)" stroke="rgb(18,19,19)" stroke-width="1" opacity="0.9686274509803922" d="M 215 235 L 219.5 236 Q 220.8 233.7 225.5 235 Q 230.6 238.7 229 248 L 225.5 249 L 224 247.5 Q 225.7 240.8 222.5 239 L 219 241.5 Q 220.5 247.5 217.5 249 L 215 247.5 L 215 235 Z " /><path fill="rgb(18,19,19)" stroke="rgb(18,19,19)" stroke-width="1" opacity="0.9686274509803922" d="M 271.5 235 L 275 235 L 275 242.5 L 278.5 244 L 280 242.5 L 280 235 L 284 235 L 284 236.5 L 285 237.5 L 285 246.5 L 281.5 249 Q 280 245.5 278.5 248 L 275.5 249 L 271 245.5 L 270 236.5 L 271.5 235 Z " /><path fill="rgb(18,19,19)" stroke="rgb(18,19,19)" stroke-width="1" opacity="0.9686274509803922" d="M 315 235 L 319.5 236 L 325 235 Q 327.3 241 320.5 239 L 319 240.5 Q 320.8 247.2 317.5 249 L 315 247.5 L 315 235 Z " /></svg>